<?xml version="1.0" encoding="utf-8"?>
<!-- Generator: Adobe Illustrator 21.0.0, SVG Export Plug-In . SVG Version: 6.00 Build 0)  -->
<svg version="1.1" xmlns="http://www.w3.org/2000/svg" xmlns:xlink="http://www.w3.org/1999/xlink" x="0px" y="0px"
	 viewBox="0 0 270 200" style="enable-background:new 0 0 270 200;" xml:space="preserve">
<style type="text/css">
	.st0{display:none;}
	.st1{display:inline;fill:#B54D4D;}
	.st2{display:none;fill:#FFFFFF;}
	.st3{fill:#FFFFFF;}
	.st4{fill:#009933;}
</style>
<g id="Слой_2" class="st0">
	<rect class="st1" width="270" height="200"/>
</g>
<g id="Слой_1">
	<g>
		<path class="st2" d="M0.1,156.7c0-46,0-92,0-138c90,0,179.9,0,269.9,0c0,46,0,92,0,138C180,156.7,90.1,156.7,0.1,156.7z M94,27.3
			c0,21.3,0,42.6,0,63.8c4.6,0,9.1,0,13.8,0c0-0.8,0-1.4,0-2.1c0-6.2,0-12.4,0-18.7c0-0.9-0.1-1.8,1.3-1.8
			c5.2,0.1,10.4-0.1,15.6,0.1c9.8,0.4,18,8,19.2,17.8c0.2,1.6,0.3,3.1,0.4,4.7c4.7,0,9.2,0,13.8,0c0.2-4.2-0.2-8.2-1.4-12.1
			c-2.2-7-6.2-12.8-12.2-17.4c5.2-4.2,9-9.2,11.4-15.3c2.4-6.2,2.4-12.6,2.2-19.1C136.7,27.3,115.3,27.3,94,27.3z M230.7,91.2
			c0-0.5,0.1-0.8,0.1-1.1c0-9.5,0-19.1,0-28.6c0-4.6-0.8-9-2.7-13.1c-6-13.1-16.3-20.4-30.8-21c-9.8-0.4-19.6-0.1-29.3-0.1
			c-0.5,0-1,0.1-1.4,0.1c0,21.4,0,42.6,0,63.8C188,91.2,209.2,91.2,230.7,91.2z M35.2,68.7c12.2,0,24.2,0,36.4,0
			c0,7.5,0,14.9,0,22.4c4.7,0,9.3,0,13.9,0c0-21.3,0-42.5,0-63.8c-0.4,0-0.7-0.1-1-0.1c-9.8,0-19.7,0-29.5,0c-1.4,0-2.9,0.1-4.3,0.3
			c-16.1,2.3-28.6,15.7-29.3,31.9c-0.4,10.3-0.2,20.7-0.2,31c0,0.2,0.1,0.4,0.2,0.7c4.1,0,8.2-0.1,12.2,0c1.3,0,1.6-0.4,1.6-1.7
			c-0.1-6.3,0-12.6,0-18.8C35.2,70.1,35.2,69.4,35.2,68.7z M239.3,27.3c0,21.4,0,42.6,0,63.8c4.6,0,9,0,13.5,0c0-21.3,0-42.6,0-63.8
			C248.2,27.3,243.8,27.3,239.3,27.3z M158.2,112.7c0-2-0.1-3.8,0-5.6c0.1-1.5-0.4-1.9-1.9-1.9c-27.6,0-55.1,0-82.7,0
			c-0.7,0-1.3,0-2,0c0,2.6,0,5,0,7.5C100.5,112.7,129.2,112.7,158.2,112.7z M217.9,121.8c7.1,0,12.9-5.7,12.9-12.8
			c0-7.1-5.7-12.7-12.9-12.8c-7.1,0-12.7,5.6-12.8,12.7C205,116,210.7,121.8,217.9,121.8z M53.4,121.8c7.1,0,12.8-5.7,12.8-12.9
			c-0.1-7.1-5.7-12.7-12.8-12.7c-7.2,0-12.9,5.6-12.8,12.8C40.6,116.2,46.3,121.8,53.4,121.8z M179.3,121.8
			c7.2,0,12.8-5.6,12.8-12.8c0-7.1-5.7-12.8-12.9-12.7c-7.1,0-12.7,5.6-12.7,12.7C166.4,116.1,172.1,121.8,179.3,121.8z
			 M139.4,141.3c0.4-0.3,0.6-0.4,0.8-0.5c2.5-1.5,3.6-3.7,3-6.6c-0.5-2.4-2.2-4-5.1-4.2c-2.2-0.2-4.5-0.1-6.7-0.2
			c-1.4-0.1-1.9,0.4-1.9,1.8c0.1,5.5,0,11.1,0,16.6c0,2.1,0.1,2.1,2.3,1.6c0-2.2,0-4.5,0-6.7c0-0.5,0-1.1,0.3-1.4
			c0.8-0.9,4.5-0.3,5,0.8c1.1,2,2.2,4,3.1,6.1c0.7,1.7,1.9,1.8,3.5,1.3C142.4,147,140.9,144.2,139.4,141.3z M21.4,140
			c0,2.9,0,5.7,0,8.6c0,1.1,0.2,1.6,1.4,1.5c3.4-0.1,6.7,0,10.1,0c0.8,0,1.5-0.1,1.3-1c-0.1-0.5-0.8-1.1-1.2-1.1
			c-1.5-0.1-3-0.1-4.5-0.1c-4.9,0-4.9,0-4.8-4.9c0-1.3,0.4-1.9,1.8-1.8c1.9,0.1,3.9,0.1,5.8,0c0.5,0,0.9-0.7,1.3-1.1
			c-0.4-0.4-0.9-1-1.3-1.1c-2.1-0.1-4.1-0.1-6.2,0c-1.1,0-1.4-0.4-1.4-1.4c0-1.3,0.1-2.6,0-3.9c-0.1-1.2,0.5-1.6,1.6-1.6
			c2.5,0,4.9,0,7.4,0c0.7,0,1.5,0.1,1.5-1.1c0-1.2-0.8-1.1-1.5-1.1c-3.3,0-6.5,0-9.8,0c-1.2,0-1.6,0.4-1.6,1.6
			C21.5,134.3,21.4,137.1,21.4,140z M177.7,141.2c0.6-1.8,0-2.4-1.5-2.2c-0.7,0.1-1.4,0-2.1,0c-5.3,0-5.3,0-5.1-5.3
			c0-1.2,0.5-1.6,1.6-1.6c2.3,0,4.6,0,6.9,0c0.8,0,2,0.3,2-1.1c0-1.4-1.2-1-1.9-1c-3,0-6.1,0-9.1,0c-1.3,0-1.8,0.4-1.8,1.8
			c0.1,5.6,0.1,11.2,0,16.8c0,1.2,0.3,1.8,1.6,1.7c3.1-0.1,6.3-0.1,9.4,0c1.5,0,2-0.6,1.5-2.1c-0.6,0-1.2-0.1-1.8-0.1
			c-2.3,0-4.6-0.1-6.9,0c-1.2,0-1.7-0.4-1.6-1.6c0.1-1.1,0.1-2.3,0-3.4c-0.1-1.4,0.5-1.8,1.8-1.8C173,141.2,175.3,141.2,177.7,141.2
			z M96.5,149.8c0-1.8,0-3.5,0-5.2c0-2.7,0-2.6,2.7-2.7c1.1,0,2.3,0,3.4-0.1c3-0.2,4.9-2.2,5.2-5.4c0.3-3.1-1.4-6-4.2-6.4
			c-3.1-0.4-6.3-0.1-9.6-0.1c0,0.5-0.1,1-0.1,1.5c0,5.5,0,11.1,0,16.6C94,150.2,94.1,150.2,96.5,149.8z M238.3,148.1
			c2.7,2,5.6,2.7,8.8,2.2c3.8-0.6,5.6-2.5,5.6-5.5c0-3.3-1.3-4.7-5.4-5.6c-1.3-0.3-2.7-0.6-4-1c-1.7-0.7-2.3-2.2-1.6-3.9
			c0.6-1.5,1.9-2.2,3.4-2.2c1.9,0.1,3.9,0.6,5.8,0.9c0.3,0.2,0.5,0,0.7-0.3c0.2-0.3,0.3-0.6,0.5-0.8c-2.8-2.4-7.8-2.7-10.7-0.8
			c-2.3,1.5-2.5,3.7-2.1,6.1c0.3,2,1.7,3.1,3.5,3.5c1.7,0.4,3.4,0.7,5,1.1c1.6,0.4,2.7,1.4,2.6,3.1c0,1.7-1.1,2.7-2.7,3.1
			c-2.3,0.7-4.6,0.4-6.6-0.8C239.7,146.3,239,146.6,238.3,148.1z M202.2,148c3,2.1,6.1,2.8,9.4,2.1c3.4-0.7,5-2.5,5-5.5
			c0-3-1.4-4.6-4.9-5.3c-1.5-0.3-3.1-0.5-4.4-1.2c-0.9-0.4-1.9-1.7-1.8-2.5c0-1,0.9-2.2,1.8-3c0.5-0.5,1.5-0.6,2.3-0.6
			c1.8,0.2,3.6,0.7,5.7,1.1c0.2-0.3,0.6-0.8,0.9-1.4c-2.7-1.8-5.4-2.3-8.4-1.7c-3.2,0.7-4.6,2.5-4.6,5.6c0,3.1,1.2,4.4,4.6,5.2
			c1.4,0.3,2.9,0.6,4.3,1c1.5,0.4,2.4,1.5,2.3,3c0,1.5-0.9,2.7-2.4,3c-1.4,0.3-2.8,0.5-4.2,0.3c-1.5-0.2-2.9-0.9-4.4-1.5
			C203.1,146.9,202.7,147.4,202.2,148z M21.3,105.2c0,2-0.1,3.8,0,5.6c0.1,1.3,1.1,2,2.4,2c3.4,0,6.9,0,10.3,0
			c0.9,0,1.2-0.3,1.2-1.2c0-1.8,0-3.5-0.1-5.3c0-0.4-0.6-1-0.9-1C30,105.2,25.7,105.2,21.3,105.2z M239.2,112.8
			c4,0,7.9,0.1,11.7-0.1c0.7,0,1.7-1,1.8-1.6c0.2-1.9,0.1-3.8,0.1-5.7c-4.7,0-9.1,0-13.7,0C239.2,107.8,239.2,110.2,239.2,112.8z
			 M56.1,149.9c2.4,0.4,2.4,0.4,3.4-1.4c1.2-2.1,2.5-4.2,4-6.6c1.4,2.4,2.7,4.4,3.8,6.5c0.8,1.5,1.7,2.2,3.4,1.6c0-0.1,0-0.2,0-0.3
			c-1.1-1.9-2.1-4-3.5-5.7c-2.5-2.9-2.5-5.5,0-8.4c1.4-1.6,2.3-3.6,3.4-5.5c-1.7-0.5-2.7-0.1-3.4,1.4c-0.5,1.2-1.3,2.3-2,3.4
			c-0.5,0.8-1.1,1.7-1.8,2.8c-1.4-2.4-2.7-4.4-3.9-6.4c-0.9-1.5-1.3-1.6-3.1-0.9c1.7,2.7,3.3,5.5,5,8.2c0.6,1,0.6,1.8,0,2.8
			C59.6,144,57.9,146.9,56.1,149.9z"/>
		<path class="st3" d="M85.1,27.6c24.8,0,49.4,0,74.3,0c0.3,7.5,0.3,14.9-2.5,22.1c-2.8,7.1-7.2,12.9-13.2,17.7
			c6.9,5.4,11.6,12.1,14.1,20.2c1.4,4.5,1.9,9.1,1.6,14c-5.3,0-10.5,0-15.9,0c-0.1-1.8-0.2-3.6-0.4-5.4
			c-1.5-11.3-10.9-20.1-22.3-20.6c-6-0.2-12.1,0-18.1-0.1c-1.7,0-1.6,1-1.6,2c0,7.2,0,14.4,0,21.6c0,0.8,0,1.6,0,2.4
			c-5.4,0-10.6,0-16,0C85.1,76.9,85.1,52.3,85.1,27.6z M141.7,43.9c-0.3-0.1-0.5-0.2-0.7-0.2c-12.8,0-25.6,0-38.4,0
			c-1.3,0-1.5,0.7-1.5,1.7c0,4,0.1,8.1,0,12.1c0,1.4,0.4,1.8,1.8,1.8c5.4-0.1,10.7,0,16.1,0c4.8,0,9.3-1.2,13.4-3.8
			C136.7,52.5,139.9,48.8,141.7,43.9z"/>
		<path class="st3" d="M243.5,101.5c-24.9,0-49.5,0-74.4,0c0-24.6,0-49.2,0-73.9c0.5-0.1,1.1-0.2,1.6-0.2c11.3,0,22.7-0.3,34,0.1
			c16.8,0.7,28.7,9.1,35.6,24.3c2.2,4.8,3.1,9.9,3.1,15.2c0,11,0,22.1,0,33.1C243.6,100.6,243.6,101,243.5,101.5z M185.4,85.5
			c0.5,0.1,0.6,0.1,0.8,0.1c13.2,0,26.4,0,39.6,0c1.4,0,1.6-0.6,1.6-1.8c0-5.4,0-10.7,0-16.1c-0.2-14.1-10.4-24.1-24.5-24.2
			c-4.9,0-9.8,0-14.7,0c-0.9,0-1.8,0-2.8,0C185.4,57.7,185.4,71.5,185.4,85.5z"/>
		<path class="st3" d="M17.1,75.5c0,0.8,0,1.6,0,2.4c0,7.3,0,14.5,0,21.8c0,1.4-0.4,2-1.9,1.9c-4.7-0.1-9.4,0-14.1,0
			c-0.1-0.4-0.2-0.6-0.2-0.8c0-12-0.3-23.9,0.2-35.9c0.8-18.8,15.2-34.3,33.9-37c1.6-0.2,3.3-0.4,4.9-0.4c11.4,0,22.8,0,34.2,0
			c0.3,0,0.6,0.1,1.1,0.1c0,24.6,0,49.2,0,73.9c-5.3,0-10.6,0-16.1,0c0-8.6,0-17.2,0-25.9C45.2,75.5,31.3,75.5,17.1,75.5z
			 M59.1,43.6c-6.6,0-12.9-0.1-19.3,0c-4.3,0.1-8.3,1.4-11.9,3.8c-4.3,2.9-7.4,6.6-9.2,11.7c13.6,0,27,0,40.4,0
			C59.1,54,59.1,48.9,59.1,43.6z"/>
		<path class="st3" d="M253.4,27.5c5.2,0,10.4,0,15.7,0c0,24.6,0,49.2,0,73.9c-5.2,0-10.4,0-15.7,0
			C253.4,76.9,253.4,52.3,253.4,27.5z"/>
		<path class="st3" d="M159.5,126.5c-33.6,0-66.9,0-100.3,0c0-2.9,0-5.6,0-8.7c0.8,0,1.5,0,2.3,0c31.9,0,63.9,0,95.8,0
			c1.7,0,2.4,0.4,2.2,2.2C159.4,122.1,159.5,124.2,159.5,126.5z"/>
		<path class="st3" d="M228.6,137c-8.3,0-14.9-6.7-14.8-14.9c0.1-8.2,6.7-14.7,14.8-14.7c8.3,0,15,6.6,14.9,14.8
			C243.6,130.4,236.9,137,228.6,137z"/>
		<path class="st3" d="M38.2,137c-8.3,0-14.9-6.5-14.9-14.8c0-8.3,6.5-14.8,14.9-14.8c8.2,0,14.8,6.5,14.8,14.7
			C53.1,130.3,46.5,136.9,38.2,137z"/>
		<path class="st3" d="M184,137c-8.3,0-14.9-6.6-14.8-14.9c0-8.2,6.5-14.7,14.8-14.7c8.3,0,14.9,6.5,14.9,14.7
			C198.8,130.4,192.3,136.9,184,137z"/>
		<path class="st4" d="M137.8,159.6c1.7,3.3,3.4,6.5,5.1,9.9c-1.9,0.6-3.2,0.4-4.1-1.6c-1-2.4-2.3-4.7-3.5-7.1
			c-0.6-1.2-4.9-2-5.8-0.9c-0.3,0.4-0.4,1.1-0.4,1.7c0,2.6,0,5.2,0,7.8c-2.6,0.6-2.7,0.5-2.7-1.9c0-6.4,0.1-12.8,0-19.2
			c0-1.7,0.6-2.2,2.2-2.1c2.6,0.1,5.2,0,7.7,0.2c3.3,0.3,5.4,2.1,5.9,4.9c0.6,3.4-0.5,6-3.5,7.7
			C138.4,159.1,138.2,159.3,137.8,159.6z M129.1,153c0,4.7-0.4,4.1,4.1,4.1c0.7,0,1.3,0,2,0c2.6-0.1,4.1-1.6,4.2-4.1
			c0.1-2.5-1.4-4-4-4.2c-0.7,0-1.5,0-2.2,0C128.2,148.8,129.2,148.6,129.1,153z"/>
		<path class="st4" d="M1.1,158.1c0-3.3,0.1-6.6,0-9.9c0-1.4,0.5-1.9,1.8-1.9c3.8,0.1,7.5,0,11.3,0c0.9,0,1.8-0.1,1.8,1.3
			c0,1.3-0.9,1.3-1.8,1.3c-2.8,0-5.7,0-8.5,0c-1.3,0-2,0.5-1.9,1.9c0.1,1.5,0,3,0,4.6c0,1.2,0.4,1.7,1.6,1.6c2.4-0.1,4.8-0.1,7.1,0
			c0.5,0,1,0.8,1.5,1.2c-0.5,0.4-1,1.2-1.5,1.2c-2.2,0.1-4.5,0.1-6.7,0c-1.6-0.1-2,0.6-2.1,2.1c-0.1,5.7-0.1,5.7,5.6,5.7
			c1.7,0,3.5-0.1,5.2,0.1c0.5,0.1,1.3,0.7,1.4,1.3c0.3,1.1-0.6,1.2-1.5,1.2c-3.9,0-7.8,0-11.7,0c-1.4,0-1.7-0.6-1.6-1.8
			C1.2,164.7,1.1,161.4,1.1,158.1z"/>
		<path class="st4" d="M182.1,159.4c-2.7,0-5.3,0.1-8,0c-1.5,0-2.2,0.4-2.1,2c0.1,1.3,0.1,2.6,0,4c-0.1,1.4,0.5,1.9,1.9,1.8
			c2.6-0.1,5.3,0,8,0c0.7,0,1.4,0.1,2.1,0.1c0.5,1.8,0,2.5-1.8,2.5c-3.6-0.1-7.3-0.1-10.9,0c-1.5,0-1.9-0.6-1.9-2
			c0.1-6.5,0.1-13,0-19.4c0-1.6,0.6-2.1,2.1-2c3.5,0.1,7,0,10.5,0c0.9,0,2.2-0.5,2.2,1.2c0,1.7-1.4,1.3-2.3,1.3c-2.7,0-5.3,0.1-8,0
			c-1.3,0-1.9,0.5-1.9,1.9c-0.2,6.1-0.2,6.1,5.9,6.1c0.8,0,1.6,0.1,2.4,0C182.1,156.7,182.8,157.3,182.1,159.4z"/>
		<path class="st4" d="M88,169.4c-2.8,0.5-2.9,0.4-2.9-1.9c0-6.4,0-12.8,0-19.2c0-0.6,0.1-1.2,0.1-1.8c3.8,0,7.5-0.3,11.1,0.1
			c3.3,0.4,5.2,3.8,4.8,7.4c-0.4,3.7-2.6,6-6,6.2c-1.3,0.1-2.6,0.1-4,0.1c-3.2,0-3.2,0-3.2,3.1C88,165.4,88,167.4,88,169.4z
			 M88,153.4c0,0.8,0.1,1.6,0,2.4c-0.2,1.7,0.6,2.2,2.2,2.1c1.4-0.1,2.8,0,4.2,0c2.4-0.1,3.8-1.6,4-4.1c0.2-3.3-1.4-4.9-4.9-4.9
			C86.9,148.9,88.2,148.1,88,153.4z"/>
		<path class="st4" d="M252.3,167.4c0.8-1.7,1.5-2.1,3.1-1.2c2.4,1.4,5,1.7,7.7,0.9c1.8-0.5,3.1-1.7,3.1-3.6c0.1-2-1.2-3.2-3-3.6
			c-1.9-0.5-3.9-0.8-5.8-1.3c-2.2-0.5-3.8-1.8-4.1-4.1c-0.4-2.7-0.1-5.3,2.5-7c3.4-2.2,9.1-1.8,12.4,1c-0.2,0.3-0.4,0.6-0.6,1
			c-0.2,0.3-0.5,0.6-0.8,0.4c-2.2-0.4-4.5-0.9-6.7-1c-1.7-0.1-3.2,0.7-3.9,2.5c-0.8,2-0.1,3.8,1.9,4.5c1.5,0.6,3.1,0.8,4.6,1.2
			c4.8,1.1,6.3,2.7,6.3,6.5c-0.1,3.6-2.1,5.7-6.5,6.4C258.8,170.5,255.4,169.7,252.3,167.4z"/>
		<path class="st4" d="M210.5,167.4c0.6-0.8,1-1.3,1.3-1.8c1.8,0.6,3.4,1.5,5.1,1.7c1.6,0.2,3.3,0.1,4.9-0.3
			c1.7-0.4,2.7-1.7,2.7-3.5c0-1.8-1-3-2.7-3.5c-1.7-0.5-3.4-0.7-5-1.1c-3.9-0.9-5.3-2.5-5.3-6c0-3.6,1.7-5.7,5.4-6.5
			c3.4-0.7,6.6-0.2,9.7,1.9c-0.5,0.7-0.9,1.3-1.1,1.6c-2.4-0.5-4.4-1-6.6-1.2c-0.9-0.1-2.1,0.1-2.6,0.7c-0.9,1-2,2.3-2,3.5
			c0,1,1.1,2.4,2.1,2.9c1.6,0.8,3.4,1,5.1,1.4c4.1,0.9,5.7,2.7,5.7,6.2c0,3.5-1.9,5.6-5.8,6.4C217.6,170.6,214,169.9,210.5,167.4z"
			/>
		<path class="st3" d="M1,117.8c5.1,0,10.1,0,15,0.1c0.4,0,1,0.8,1,1.2c0.1,2,0,4.1,0.1,6.1c0,1-0.3,1.4-1.4,1.4c-4,0-7.9,0-11.9,0
			c-1.5,0-2.7-0.8-2.8-2.3C0.8,122.2,1,120.1,1,117.8z"/>
		<path class="st3" d="M253.3,126.5c0-3,0-5.7,0-8.5c5.2,0,10.4,0,15.8,0c0,2.2,0.2,4.4-0.1,6.6c-0.1,0.7-1.4,1.9-2.1,1.9
			C262.5,126.6,258,126.5,253.3,126.5z"/>
		<path class="st2" d="M142.8,41.4c-1.6,4.3-4.3,7.5-8,9.9c-3.5,2.3-7.4,3.3-11.5,3.3c-4.6,0-9.3,0-13.9,0c-1.2,0-1.6-0.4-1.6-1.6
			c0.1-3.5,0-7,0-10.4c0-0.9,0.1-1.5,1.3-1.5c11,0,22.1,0,33.1,0C142.3,41.2,142.5,41.3,142.8,41.4z"/>
		<path class="st2" d="M180.5,77.3c0-12.1,0-24,0-36.2c0.9,0,1.6,0,2.4,0c4.2,0,8.5,0,12.7,0c12.2,0.1,21,8.8,21.2,20.9
			c0.1,4.6,0,9.2,0,13.9c0,1-0.2,1.5-1.4,1.5c-11.4,0-22.8,0-34.2,0C181.1,77.4,180.9,77.4,180.5,77.3z"/>
		<path class="st2" d="M71.5,41.2c0,4.6,0,8.9,0,13.4c-11.6,0-23.2,0-34.9,0c1.6-4.4,4.3-7.6,8-10.1c3.1-2.1,6.6-3.3,10.3-3.3
			C60.3,41.1,65.8,41.2,71.5,41.2z"/>
		<path class="st2" d="M131.9,135.6c0.1-3.7-0.7-3.6,3.6-3.6c0.6,0,1.3,0,1.9,0c2.3,0.2,3.5,1.5,3.4,3.6c-0.1,2.1-1.4,3.4-3.6,3.5
			c-0.6,0-1.1,0-1.7,0C131.6,139.1,131.9,139.7,131.9,135.6z"/>
		<path class="st2" d="M96.5,136c0.1-4.6-1-3.9,4.6-3.9c3,0,4.4,1.4,4.2,4.3c-0.1,2.1-1.3,3.4-3.4,3.5c-1.2,0.1-2.4,0-3.6,0
			c-1.4,0.1-2-0.4-1.9-1.8C96.5,137.4,96.5,136.7,96.5,136z"/>
	</g>
	<path class="st4" d="M41.3,169.4c2.1-3.5,4.1-6.8,6.1-10c0.8-1.2,0.8-2.1,0-3.2c-2-3.1-3.9-6.3-5.8-9.4c2.2-0.8,2.5-0.7,3.6,1.1
		c1.4,2.4,2.9,4.7,4.5,7.4c0.8-1.3,1.4-2.2,2-3.2c0.8-1.3,1.7-2.6,2.3-3.9c0.8-1.7,1.9-2.2,3.9-1.6c-1.3,2.2-2.4,4.5-3.9,6.4
		c-2.8,3.4-2.8,6.3,0,9.7c1.6,1.9,2.7,4.4,4.1,6.6c0.1,0.1,0,0.3,0,0.4c-1.9,0.7-3-0.2-3.9-1.9c-1.3-2.4-2.8-4.7-4.5-7.5
		c-1.7,2.8-3.1,5.3-4.6,7.7C44,169.9,44,169.9,41.3,169.4z"/>
</g>
</svg>
